<?xml version="1.0" encoding="utf-8"?>
<!-- Generator: Adobe Illustrator 25.0.0, SVG Export Plug-In . SVG Version: 6.00 Build 0)  -->
<svg version="1.1" xmlns="http://www.w3.org/2000/svg" xmlns:xlink="http://www.w3.org/1999/xlink" x="0px" y="0px"
	 viewBox="0 0 1300 512" style="enable-background:new 0 0 1300 512;" xml:space="preserve">
<style type="text/css">
	.st0{display:none;}
	.st1{display:inline;}
	.st2{fill:#FFFFFF;}
	.st3{fill:#39B54A;}
	.st4{fill:none;}
</style>
<g id="Layer_5" class="st0">
	<rect class="st1" width="2048" height="512"/>
</g>
<g id="Layer_2">
</g>
<g id="Layer_4">
	<path class="st3" d="M390.4,291.45c-2.47,10.71-11.61,19.15-21.65,18.81c-5.38-0.18-10.06-2.79-13.22-6.93
		c1.43,0.45,2.96,0.67,4.54,0.62c8.01-0.25,14.86-7.44,16.27-16.09c1.41-8.66-2.86-17.3-10.45-19.58c-0.87-0.26-1.74-0.43-2.62-0.5
		c4.83-2.85,10.46-3.59,15.65-1.66C388.23,269.59,392.87,280.74,390.4,291.45z"/>
	<path class="st3" d="M279.56,289.88c-2.74,11.91-12.92,21.3-24.08,20.92c-6.73-0.23-12.46-3.87-15.93-9.5
		c2.42,1.78,5.35,2.75,8.52,2.65c8.01-0.25,14.86-7.44,16.27-16.09c1.41-8.66-2.86-17.3-10.45-19.58c-4.01-1.2-8.21-0.47-11.79,1.74
		c6.19-8.06,16.01-11.55,24.69-8.32C277.15,265.56,282.31,277.96,279.56,289.88z"/>
	<path d="M348.05,276.27c-0.87,2.01-1.59,4.16-2.11,6.43c-0.46,2.01-0.75,3.99-0.86,5.92c-0.09-1.53-0.01-3.14,0.26-4.8
		C345.8,280.99,346.75,278.45,348.05,276.27z"/>
</g>
<g id="Layer_3">
	<g id="XMLID_1_">
		<g>
			<g>
				<path class="st3" d="M440.24,227l16.79-91.19l-254.62-7.67l-30.82,251.33c122.41,10.42,198.86-1.44,243.06-13.46l4.65-25.25
					L298,344.19L318.81,227h67.6c-13.95-7.83-35.82-22.2-44.01-33.01c-14.4-18.99-5.2-33.41,7.96-25.32
					c14.5,8.91,47.64,48.33,59.69,52.51c3.63,1.6,4.85,3.77,4.39,5.82H440.24z M285.46,291.47c-3.51,15.22-16.51,27.21-30.78,26.73
					c-9.04-0.31-16.68-5.43-21.01-13.27c-3.65-6.57-4.97-15.05-2.86-24.22c1.32-5.71,3.73-10.68,6.88-14.73
					c7.9-10.21,20.4-14.62,31.44-10.51C282.37,260.4,288.96,276.25,285.46,291.47z M288.77,234.19C271,228,227,208,227,208
					c-11-5-14-17,2.8-16.7c0,0,69.2,8.93,76.2,22.7C313,227.77,306.53,240.38,288.77,234.19z"/>
			</g>
			<g>
				<path class="st3" d="M327.19,237L310,333.81l101.15-3.11l10.23-0.31l18.43-0.26L456.99,237H327.19z M396.42,292.63
					c-2.5,10.86-10.23,19.94-19.69,23.31c-2.79,1-5.74,1.49-8.74,1.39c-13.69-0.46-23.9-12.87-22.91-28.71
					c0.11-1.93,0.4-3.91,0.86-5.92c0.52-2.27,1.24-4.42,2.11-6.43c6.1-14,20.05-21.17,32.33-17.23c0.32,0.11,0.64,0.22,0.96,0.34
					C393.57,263.93,399.66,278.57,396.42,292.63z"/>
			</g>
			<g>
				<path class="st3" d="M412.4,376.96l-14.55,78.53l-238.16,27.75l10.73-93.84C290.19,399.63,367.37,388.74,412.4,376.96z"/>
			</g>
			<g>
				<polygon class="st3" points="192.62,125.77 162.28,373.27 41,253 66.03,56.89 				"/>
			</g>
			<g>
				<path class="st3" d="M160.76,385.85l-10.35,90.56l-49.53-62.56c-11.59-14.27-19.14-41.27-11.14-65.27
					c2.63-7.87,6.29-12.92,10.61-14.62c3.68-1.46,7.15-0.24,8.37,0.3L160.76,385.85z"/>
			</g>
		</g>
		<g>
			<g>
				<g id="XMLID_2_">
					<g>
						<polygon class="st3" points="206.83,82.48 195.22,115.79 70.65,48.01 81.13,38.69 						"/>
						<polygon class="st3" points="312.19,43.77 311.26,46.69 286.8,46.69 244.39,41.44 						"/>
						<polygon class="st3" points="279.78,55.89 278.38,60 249.84,60 182.31,43.82 						"/>
						<polygon class="st3" points="242.79,68.59 240.92,74.19 241.05,74.23 241,74.4 210,74 113.97,39.54 						"/>
						<polygon class="st3" points="237.72,84.4 226.41,118.89 204.96,118.22 216.74,84.4 						"/>
						<polygon class="st3" points="470.56,89.31 457.44,125.89 440.13,125.54 452.87,88.27 						"/>
						<polygon class="st3" points="449.12,71.5 445.68,81.32 430.67,125.21 413.26,124.75 430.37,70.31 						"/>
						<polygon class="st3" points="423.99,57.44 422.01,63.52 402.88,124.43 387.19,123.93 407.94,56.84 						"/>
						<polygon class="st3" points="401.24,44.76 399.52,50.22 376.81,123.61 355.2,122.93 380.25,44.02 						"/>
						<polygon class="st3" points="371.74,37.77 345.25,121.25 345.07,121.79 325.85,121.79 353.58,37.13 						"/>
						<polygon class="st3" points="340.81,44 315.36,121.67 298.15,121.14 318.35,57.42 322.61,44 						"/>
						<polygon class="st3" points="308.09,56.69 287.75,120.82 268.56,120.22 286.66,66.7 290.08,56.69 						"/>
						<polygon class="st3" points="274.99,70 258.11,119.89 236.83,119.22 252.97,70 						"/>
						<polygon class="st3" points="315.36,121.67 315.36,121.69 298.15,121.14 						"/>
					</g>
				</g>
			</g>
		</g>
	</g>
</g>
<g id="Layer_6">
	<g>
		<path class="st2" d="M648.71,80.68h13.28l28.33,157.12h-16.38l-8.63-49.13h-66.17l-29.21,49.13h-16.6L648.71,80.68z M664.43,176.5
			l-12.83-77.68L604.9,176.5H664.43z"/>
		<path class="st2" d="M746.08,80.68h15.27l-30.54,143.4h85.86l-2.88,13.72H712.66L746.08,80.68z"/>
		<path class="st2" d="M869.34,80.68h98.48l-2.88,13.72h-83.21l-12.17,56.65h72.58l-2.66,13.06h-72.58l-12.84,59.97h85.2
			l-2.88,13.72H835.92L869.34,80.68z"/>
		<path class="st2" d="M998.13,80.91h15.27l-19.47,91.17l100.69-91.4h17.26l-75.68,69.04l45.37,88.08h-17.26l-39.61-79l-34.3,30.76
			l-10.4,48.24h-15.27L998.13,80.91z"/>
		<path class="st2" d="M1120.73,122.51l8.63-23.46h-5.09l4.65-22.79h14.83l-4.87,22.79l-10.4,23.46H1120.73z"/>
		<path class="st2" d="M1190.43,239.13c-23.46,0-41.9-7.6-55.32-22.79l10.4-12.61c3.98,6.05,10.14,11.18,18.48,15.38
			c8.33,4.2,18.26,6.31,29.76,6.31c13.42,0,24.05-2.77,31.87-8.3c7.82-5.53,11.73-13.53,11.73-24.01c0-3.83-0.85-7.12-2.54-9.85
			c-1.7-2.73-4.2-5.16-7.52-7.3c-3.32-2.14-7.34-3.98-12.06-5.53c-4.72-1.55-10.18-3.13-16.38-4.76c-6.35-1.62-11.99-3.35-16.93-5.2
			c-4.94-1.84-9.11-4.02-12.5-6.53c-3.4-2.51-5.97-5.49-7.75-8.96c-1.77-3.46-2.66-7.56-2.66-12.28c0-8.26,1.66-15.67,4.98-22.24
			c3.32-6.56,7.86-12.13,13.61-16.71c5.75-4.57,12.5-8.08,20.25-10.51c7.75-2.43,16.12-3.65,25.12-3.65
			c9.88,0,18.48,1.59,25.78,4.76c7.3,3.17,13.39,7.64,18.26,13.39l-9.96,12.39c-2.95-5.01-7.67-9.07-14.16-12.17
			c-6.49-3.1-14.16-4.65-23.02-4.65c-7.67,0-14.27,0.88-19.81,2.66c-5.53,1.77-10.11,4.2-13.72,7.3c-3.62,3.1-6.27,6.75-7.97,10.95
			c-1.7,4.2-2.54,8.74-2.54,13.61c0,3.54,0.74,6.57,2.21,9.07c1.47,2.51,3.69,4.68,6.64,6.53c2.95,1.85,6.64,3.47,11.07,4.87
			c4.43,1.4,9.59,2.84,15.49,4.31c6.49,1.63,12.39,3.36,17.7,5.2c5.31,1.85,9.85,4.13,13.61,6.86c3.76,2.73,6.67,6.01,8.74,9.85
			c2.06,3.84,3.1,8.49,3.1,13.94c0,8.41-1.66,15.79-4.98,22.13c-3.32,6.35-7.86,11.62-13.61,15.82c-5.75,4.2-12.5,7.38-20.25,9.52
			C1207.8,238.06,1199.43,239.13,1190.43,239.13z"/>
		<path class="st2" d="M557.22,346.8h-34.24l1.87-8.92h78.69l-1.87,8.92h-34.38l-19.85,93.22h-9.93L557.22,346.8z"/>
		<path class="st2" d="M636.63,440.74c-5.95,0-10.98-0.89-15.11-2.66c-4.12-1.77-7.43-4.19-9.93-7.26
			c-2.49-3.07-4.29-6.64-5.39-10.72c-1.1-4.08-1.65-8.46-1.65-13.16c0-5.47,0.67-11.32,2.01-17.55l10.93-51.5h9.93l-10.93,51.5
			c-0.58,2.78-1.03,5.49-1.37,8.13c-0.34,2.64-0.5,5.2-0.5,7.7c0,3.74,0.41,7.22,1.22,10.43c0.81,3.21,2.16,5.99,4.03,8.34
			c1.87,2.35,4.32,4.22,7.34,5.61c3.02,1.39,6.74,2.09,11.15,2.09c6.04,0,11.34-1.22,15.9-3.67c4.55-2.45,8.44-5.66,11.65-9.64
			c3.21-3.98,5.83-8.51,7.84-13.59c2.01-5.08,3.55-10.21,4.6-15.39l10.93-51.5h9.93l-10.79,51.5c-1.44,6.91-3.55,13.48-6.33,19.71
			c-2.78,6.24-6.31,11.68-10.57,16.33c-4.27,4.65-9.28,8.37-15.03,11.15C650.73,439.35,644.11,440.74,636.63,440.74z"/>
		<path class="st2" d="M745.1,346.8h-34.24l1.87-8.92h78.69l-1.87,8.92h-34.38l-19.85,93.22h-9.93L745.1,346.8z"/>
		<path class="st2" d="M819.33,440.74c-5.75,0-10.86-1.17-15.32-3.52c-4.46-2.35-8.22-5.47-11.29-9.35
			c-3.07-3.88-5.39-8.37-6.98-13.45c-1.58-5.08-2.37-10.36-2.37-15.82c0-7.77,1.63-15.34,4.89-22.73
			c3.26-7.38,7.6-13.95,13.02-19.71c5.42-5.75,11.6-10.36,18.56-13.81c6.95-3.45,14.17-5.18,21.65-5.18c5.75,0,10.84,1.2,15.25,3.6
			c4.41,2.4,8.13,5.56,11.15,9.49c3.02,3.93,5.32,8.44,6.91,13.52c1.58,5.08,2.37,10.36,2.37,15.82c0,7.77-1.61,15.32-4.82,22.66
			c-3.21,7.34-7.51,13.86-12.88,19.56c-5.37,5.71-11.53,10.29-18.49,13.74C834.03,439.01,826.81,440.74,819.33,440.74z
			 M821.35,431.67c6.33,0,12.25-1.53,17.77-4.6c5.51-3.07,10.36-7.07,14.53-12.01c4.17-4.94,7.46-10.45,9.85-16.54
			c2.4-6.09,3.6-12.16,3.6-18.2c0-4.51-0.62-8.82-1.87-12.95c-1.25-4.12-3.05-7.74-5.39-10.86c-2.35-3.12-5.25-5.59-8.7-7.41
			c-3.45-1.82-7.34-2.73-11.65-2.73c-6.33,0-12.28,1.54-17.84,4.6c-5.56,3.07-10.43,7.05-14.6,11.94
			c-4.17,4.89-7.46,10.38-9.85,16.47c-2.4,6.09-3.6,12.21-3.6,18.34c0,4.51,0.6,8.82,1.8,12.95c1.2,4.12,3,7.75,5.39,10.86
			c2.4,3.12,5.3,5.59,8.7,7.41C812.88,430.76,816.84,431.67,821.35,431.67z"/>
		<path class="st2" d="M884.07,440.02l21.72-102.14h41c3.55,0,6.76,0.74,9.64,2.23c2.88,1.49,5.27,3.48,7.19,5.97
			c1.92,2.49,3.4,5.35,4.46,8.56c1.05,3.21,1.58,6.5,1.58,9.85c0,4.12-0.77,8.18-2.3,12.16c-1.54,3.98-3.6,7.6-6.19,10.86
			c-2.59,3.26-5.64,6.07-9.13,8.42c-3.5,2.35-7.22,3.91-11.15,4.68l15.39,39.42h-11.36l-14.67-37.69h-28.2l-8.06,37.69H884.07z
			 M935.42,393.41c3.26,0,6.35-0.81,9.28-2.45c2.92-1.63,5.47-3.76,7.62-6.4c2.16-2.64,3.86-5.61,5.11-8.92
			c1.25-3.31,1.87-6.64,1.87-10c0-2.59-0.36-5.01-1.08-7.26c-0.72-2.25-1.73-4.24-3.02-5.97c-1.29-1.73-2.88-3.09-4.75-4.1
			c-1.87-1.01-3.91-1.51-6.11-1.51h-30.5l-9.93,46.61H935.42z"/>
		<path class="st2" d="M996.13,338.02h9.93l-21.72,102h-9.93L996.13,338.02z"/>
		<path class="st2" d="M1061.73,337.88h8.63l18.41,102.14h-10.65l-5.61-31.94h-43.01l-18.99,31.94h-10.79L1061.73,337.88z
			 M1071.94,400.17l-8.34-50.49l-30.35,50.49H1071.94z"/>
		<path class="st2" d="M1125.03,337.88h9.93l-19.85,93.22h55.82l-1.87,8.92h-65.74L1125.03,337.88z"/>
		<path class="st2" d="M1213.21,440.88c-15.25,0-27.24-4.94-35.96-14.82l6.76-8.2c2.59,3.93,6.59,7.26,12.01,10
			c5.42,2.73,11.87,4.1,19.35,4.1c8.73,0,15.63-1.8,20.72-5.39c5.08-3.6,7.62-8.8,7.62-15.61c0-2.49-0.55-4.63-1.65-6.4
			c-1.1-1.77-2.73-3.36-4.89-4.75c-2.16-1.39-4.77-2.59-7.84-3.6c-3.07-1.01-6.62-2.04-10.65-3.09c-4.12-1.05-7.79-2.18-11.01-3.38
			c-3.21-1.2-5.92-2.61-8.13-4.24c-2.21-1.63-3.88-3.57-5.03-5.83c-1.15-2.25-1.73-4.91-1.73-7.98c0-5.37,1.08-10.19,3.24-14.46
			c2.16-4.27,5.11-7.89,8.85-10.86c3.74-2.97,8.13-5.25,13.16-6.83c5.03-1.58,10.48-2.37,16.33-2.37c6.42,0,12.01,1.03,16.76,3.09
			c4.75,2.06,8.7,4.96,11.87,8.7l-6.47,8.06c-1.92-3.26-4.99-5.9-9.21-7.91c-4.22-2.01-9.21-3.02-14.96-3.02
			c-4.99,0-9.28,0.58-12.88,1.73c-3.6,1.15-6.57,2.73-8.92,4.75c-2.35,2.01-4.08,4.39-5.18,7.12c-1.1,2.73-1.65,5.68-1.65,8.85
			c0,2.3,0.48,4.27,1.44,5.9c0.96,1.63,2.4,3.05,4.32,4.24c1.92,1.2,4.32,2.25,7.19,3.16c2.88,0.91,6.23,1.85,10.07,2.81
			c4.22,1.06,8.06,2.18,11.51,3.38c3.45,1.2,6.4,2.69,8.85,4.46c2.45,1.78,4.34,3.91,5.68,6.4c1.34,2.49,2.01,5.52,2.01,9.06
			c0,5.47-1.08,10.26-3.24,14.39c-2.16,4.12-5.11,7.55-8.85,10.29c-3.74,2.73-8.13,4.8-13.16,6.19
			C1224.5,440.18,1219.06,440.88,1213.21,440.88z"/>
	</g>
</g>
</svg>
