<?xml version="1.0" encoding="utf-8"?>
<!-- Generator: Adobe Illustrator 25.0.0, SVG Export Plug-In . SVG Version: 6.00 Build 0)  -->
<svg version="1.1" id="Layer_1" xmlns="http://www.w3.org/2000/svg" xmlns:xlink="http://www.w3.org/1999/xlink" x="0px" y="0px"
	 viewBox="0 0 64 64" style="enable-background:new 0 0 64 64;" xml:space="preserve">
<g>
	<path d="M62.54,55.41L46.86,39.72c-1.04-1.04-2.46-1.49-3.82-1.33c7.13-9.38,6.41-22.81-2.16-31.38C36.2,2.34,30.08,0,23.95,0
		C17.82,0,11.7,2.34,7.02,7.02c-9.36,9.36-9.36,24.52,0,33.86c4.68,4.68,10.8,7.02,16.94,7.02c5.09,0,10.19-1.62,14.44-4.86
		c-0.16,1.36,0.29,2.77,1.33,3.82l15.69,15.68c1.82,1.83,4.77,1.83,6.59,0l0.53-0.53C64.37,60.19,64.37,57.23,62.54,55.41z
		 M37.13,37.13c-3.52,3.52-8.2,5.45-13.17,5.45s-9.65-1.94-13.17-5.45c-3.52-3.52-5.46-8.2-5.46-13.17s1.95-9.65,5.46-13.17
		s8.2-5.46,13.17-5.46s9.65,1.95,13.17,5.46C44.39,18.04,44.39,29.87,37.13,37.13z"/>
</g>
</svg>
