<?xml version="1.0" encoding="utf-8"?>
<!-- Generator: Adobe Illustrator 25.0.0, SVG Export Plug-In . SVG Version: 6.00 Build 0)  -->
<svg version="1.1" id="Layer_1" xmlns="http://www.w3.org/2000/svg" xmlns:xlink="http://www.w3.org/1999/xlink" x="0px" y="0px"
	 viewBox="0 0 128 128" style="enable-background:new 0 0 128 128;" xml:space="preserve">
<style type="text/css">
	.st0{fill:#FFFFFF;}
</style>
<g>
	<path class="st0" d="M126.67,28.6c-0.66-0.79-1.64-1.24-2.67-1.24H27.71l-4.16-13.4c-0.45-1.46-1.81-2.46-3.34-2.46H4
		c-1.93,0-3.5,1.57-3.5,3.5s1.57,3.5,3.5,3.5h13.63l22.93,73.9c-4.73,1.75-8.11,6.31-8.11,11.64c0,6.84,5.56,12.4,12.4,12.4
		c6.84,0,12.41-5.56,12.41-12.4c0-2.15-0.55-4.17-1.51-5.93h40.01c-0.96,1.76-1.51,3.78-1.51,5.93c0,6.84,5.57,12.4,12.41,12.4
		c6.84,0,12.4-5.56,12.4-12.4c0-6.2-4.57-11.35-10.51-12.26c-0.01,0-0.01,0-0.01,0c-0.57-0.43-1.28-0.67-2.04-0.67H47.49l-1.37-4.41
		L117,78.71c1.56-0.17,2.8-1.36,3.06-2.9l7.39-44.37C127.62,30.42,127.34,29.38,126.67,28.6z M112.06,104.04
		c0,2.98-2.42,5.4-5.4,5.4c-2.98,0-5.41-2.42-5.41-5.4s2.43-5.4,5.41-5.4C109.64,98.64,112.06,101.06,112.06,104.04z M50.26,104.04
		c0,2.98-2.43,5.4-5.41,5.4c-2.98,0-5.4-2.42-5.4-5.4s2.42-5.4,5.4-5.4C47.83,98.64,50.26,101.06,50.26,104.04z M113.59,72.05
		L44.01,79.9L29.88,34.36h89.99L113.59,72.05z"/>
</g>
</svg>
