<?xml version="1.0" encoding="utf-8"?>
<!-- Generator: Adobe Illustrator 25.0.0, SVG Export Plug-In . SVG Version: 6.00 Build 0)  -->
<svg version="1.1" id="Layer_1" xmlns="http://www.w3.org/2000/svg" xmlns:xlink="http://www.w3.org/1999/xlink" x="0px" y="0px"
	 viewBox="0 0 128 128" style="enable-background:new 0 0 128 128;" xml:space="preserve">
<style type="text/css">
	.st0{fill:#FFFFFF;}
</style>
<g>
	<path class="st0" d="M125.15,110.37c2.34,2.34,2.34,6.14,0,8.48l-5.66,5.66c-2.34,2.34-6.14,2.34-8.48,0L64.46,77.96L17.9,124.51
		c-2.35,2.34-6.14,2.34-8.49,0l-5.65-5.66c-2.35-2.34-2.35-6.14,0-8.48l46.55-46.56L3.76,17.26c-2.35-2.35-2.35-6.15,0-8.49
		l5.65-5.66c2.35-2.34,6.14-2.34,8.49,0l46.56,46.56l46.55-46.56c2.34-2.34,6.14-2.34,8.48,0l5.66,5.66c2.34,2.34,2.34,6.14,0,8.49
		L78.6,63.81L125.15,110.37z"/>
</g>
</svg>
