<?xml version="1.0" encoding="utf-8"?>
<!-- Generator: Adobe Illustrator 25.0.0, SVG Export Plug-In . SVG Version: 6.00 Build 0)  -->
<svg version="1.1" id="Layer_1" xmlns="http://www.w3.org/2000/svg" xmlns:xlink="http://www.w3.org/1999/xlink" x="0px" y="0px"
	 viewBox="0 0 128 128" style="enable-background:new 0 0 128 128;" xml:space="preserve">
<style type="text/css">
	.st0{fill:#FFFFFF;}
</style>
<g>
	<path class="st0" d="M122,20H6c-3.31,0-6-2.69-6-6V6c0-3.31,2.69-6,6-6h116c3.31,0,6,2.69,6,6v8C128,17.31,125.31,20,122,20z"/>
</g>
<g>
	<path class="st0" d="M122,128H6c-3.31,0-6-2.69-6-6v-8c0-3.31,2.69-6,6-6h116c3.31,0,6,2.69,6,6v8C128,125.31,125.31,128,122,128z"
		/>
</g>
<g>
	<path class="st0" d="M122,74H6c-3.31,0-6-2.69-6-6v-8c0-3.31,2.69-6,6-6h116c3.31,0,6,2.69,6,6v8C128,71.31,125.31,74,122,74z"/>
</g>
</svg>
